<svg xmlns="http://www.w3.org/2000/svg" width="19" height="26" viewBox="0 0 19 26">
  <g id="ping2" transform="translate(-189.581 -115.525)">
    <g id="グループ_11" data-name="グループ 11">
      <path id="パス_1" data-name="パス 1" d="M199.081,116.025h0a9.122,9.122,0,0,0-9,9.24,9.422,9.422,0,0,0,.734,3.66c.218.519.825,1.549.847,1.585,1.856,3.077,3.833,6.23,5.76,9.382a2.028,2.028,0,0,0,1.66,1.133h0a2.028,2.028,0,0,0,1.66-1.133c1.927-3.152,3.9-6.3,5.76-9.382.022-.036.628-1.066.847-1.585a9.422,9.422,0,0,0,.734-3.66A9.122,9.122,0,0,0,199.081,116.025Zm6.3,12.028c-.114.27-.512.98-.7,1.3-1.1,1.831-2.277,3.729-3.411,5.565-.717,1.161-1.457,2.359-2.184,3.546-.726-1.187-1.466-2.385-2.184-3.546-1.134-1.836-2.307-3.735-3.411-5.565-.193-.325-.59-1.034-.7-1.3a7.15,7.15,0,0,1-.558-2.788,6.859,6.859,0,1,1,13.713,0A7.149,7.149,0,0,1,205.379,128.053Z" transform="translate(0 0)" fill="#fff" stroke="#202040" stroke-width="1"/>
      <path id="パス_2" data-name="パス 2" d="M318.2,241.3a3.923,3.923,0,1,1-3.923-3.923A3.923,3.923,0,0,1,318.2,241.3Z" transform="translate(-115.199 -115.995)" fill="#fff" stroke="#202040" stroke-width="1"/>
    </g>
  </g>
</svg>
